<svg version="1.0" id="Titre" xmlns="http://www.w3.org/2000/svg" xmlns:xlink="http://www.w3.org/1999/xlink" x="10px" y="10px" width="48px" height="48px" 
	 viewBox="0 0 24 24" xml:space="preserve">
  <title>ICON_TOOLBAR_SKYVECTOR</title>
  <g id="HIGHLIGHT">
<g data-name="Google Maps" id="Google_Maps"><path d="M11.35,15.15a.5.5,0,0,0-.71,0l-8,8A.5.5,0,0,0,3,24H19a.5.5,0,0,0,.35-.85Z" style="fill:#303c42"/><path d="M21.63,14.62a.5.5,0,0,0-.56.23,12.73,12.73,0,0,0-1.6,3.95h0a1.47,1.47,0,0,1-.11.31.5.5,0,0,0,.1.56l1.68,1.68A.5.5,0,0,0,22,21V15.1A.5.5,0,0,0,21.63,14.62Z" style="fill:#303c42"/><path d="M11.92,9.82a9.31,9.31,0,0,1-.88-3h0A6.79,6.79,0,0,1,11,6a6.9,6.9,0,0,1,.81-3.27A.5.5,0,0,0,11.37,2H2A2,2,0,0,0,0,4V21a.5.5,0,0,0,.85.35l11-11A.5.5,0,0,0,11.92,9.82ZM5.5,10.5A3,3,0,1,1,7.3,5.1a.5.5,0,1,1-.6.8A2,2,0,1,0,7.44,8H6A.5.5,0,0,1,6,7H8a.5.5,0,0,1,.5.5A3,3,0,0,1,5.5,10.5Z" style="fill:#303c42"/><path d="M18,0a6,6,0,0,0-6,6,5.92,5.92,0,0,0,0,.68c.21,2.13,1.35,3.89,2.56,5.75a17.6,17.6,0,0,1,2.91,6.17.5.5,0,0,0,1,0,17.6,17.6,0,0,1,2.91-6.17c1.21-1.86,2.35-3.62,2.56-5.74A6,6,0,0,0,18,0Zm0,3a3,3,0,1,1-3,3A3,3,0,0,1,18,3Z" style="fill:#303c42"/></g></g>
</svg>
